<?xml version="1.0" encoding="UTF-8" standalone="no"?>
<!-- Created with Inkscape (http://www.inkscape.org/) -->

<svg
   id="svg5"
   version="1.1"
   viewBox="0 0 153.6678 106.78737"
   height="106.78737mm"
   width="153.6678mm"
   xmlns:inkscape="http://www.inkscape.org/namespaces/inkscape"
   xmlns:sodipodi="http://sodipodi.sourceforge.net/DTD/sodipodi-0.dtd"
   xmlns="http://www.w3.org/2000/svg"
   xmlns:svg="http://www.w3.org/2000/svg">
  <sodipodi:namedview
     id="namedview7"
     pagecolor="#ffffff"
     bordercolor="#000000"
     borderopacity="0.25"
     inkscape:showpageshadow="2"
     inkscape:pageopacity="0.0"
     inkscape:pagecheckerboard="0"
     inkscape:deskcolor="#d1d1d1"
     inkscape:document-units="mm"
     showgrid="false"
     inkscape:zoom="0.37282197"
     inkscape:cx="159.5936"
     inkscape:cy="388.92558"
     inkscape:window-width="1920"
     inkscape:window-height="1017"
     inkscape:window-x="1912"
     inkscape:window-y="-8"
     inkscape:window-maximized="1"
     inkscape:current-layer="layer1" />
  <defs
     id="defs2" />
  <g
     inkscape:label="Layer 1"
     inkscape:groupmode="layer"
     id="layer1"
     transform="translate(-23.557152,-62.755671)">
    <text
       xml:space="preserve"
       style="font-style:normal;font-variant:normal;font-weight:normal;font-stretch:normal;font-size:70.5556px;font-family:Nougat;-inkscape-font-specification:Nougat;fill:#000000;fill-opacity:1;stroke:#000000;stroke-width:3.49999;stroke-dasharray:none;stroke-opacity:1"
       x="25.089024"
       y="170.67009"
       id="text4861-0"
       transform="rotate(-5.11259)"><tspan
         sodipodi:role="line"
         id="tspan4859-4"
         style="fill:#000000;fill-opacity:1;stroke-width:3.5"
         x="25.089024"
         y="170.67009">H</tspan></text>
    <text
       xml:space="preserve"
       style="font-style:normal;font-variant:normal;font-weight:normal;font-stretch:normal;font-size:70.5556px;font-family:Nougat;-inkscape-font-specification:Nougat;fill:#000000;fill-opacity:1;stroke:#000000;stroke-width:3.49999;stroke-dasharray:none;stroke-opacity:1"
       x="82.369843"
       y="164.88612"
       id="text4915-7"><tspan
         sodipodi:role="line"
         id="tspan4913-5"
         style="fill:#000000;fill-opacity:1;stroke-width:3.5"
         x="82.369843"
         y="164.88612">U</tspan></text>
    <path
       id="text4919-3"
       style="font-style:normal;font-variant:normal;font-weight:normal;font-stretch:normal;font-size:70.5556px;font-family:Nougat;-inkscape-font-specification:Nougat;fill:#000000;fill-opacity:1;stroke:#000000;stroke-width:3.49999;stroke-dasharray:none;stroke-opacity:1"
       d="m 130.6176,115.33937 -4.45576,13.79387 3.30502,0.27042 -2.78474,34.03508 24.26061,1.985 c 3.89106,0.31836 7.21947,-0.5655 9.98585,-2.65167 3.00844,-2.16075 4.66799,-5.13958 4.97869,-8.93689 0.24932,-3.04722 -0.10952,-5.57812 -1.07739,-7.59228 -0.89328,-1.77207 -2.60167,-3.68164 -5.12425,-5.7286 4.27422,-2.0572 6.60918,-5.50004 7.00425,-10.32872 0.28384,-3.46915 -0.65625,-6.40155 -2.81999,-8.79672 -2.16373,-2.39516 -4.98011,-3.73463 -8.44926,-4.01847 z m 13.42744,14.12417 2.74209,0.22435 c 3.37539,0.27617 4.98665,1.35224 4.83322,3.22746 -0.15342,1.87521 -1.73024,2.68991 -4.73058,2.44442 l -3.30502,-0.27041 z m 1.68513,1.87534 -0.0843,1.03059 -0.0844,1.03113 1.66072,0.0887 c 1.94474,0.10393 2.48888,-0.0331 2.53846,-0.639 0.016,-0.19613 -0.0471,-0.43105 -0.14031,-0.52219 -0.31333,-0.3065 -1.28629,-0.6062 -2.59244,-0.79853 z m -2.93367,13.38436 2.39083,0.19562 c 3.32851,0.27234 4.90842,1.44015 4.73965,3.50289 -0.18412,2.25025 -1.63572,3.26383 -4.35478,3.04136 l -3.30503,-0.27042 z m 1.68521,1.87431 -0.11895,1.45396 -0.11902,1.45449 1.15688,0.0936 c 1.88199,0.15298 2.45007,-0.0665 2.65995,-1.02777 0.21884,-1.00224 -0.41879,-1.45262 -2.55417,-1.80491 z" />
    <path
       style="fill:#000000;fill-opacity:1;stroke:#000000;stroke-width:2.34697;stroke-dasharray:none;stroke-opacity:1"
       d="m 86.464107,112.66973 c 0,-0.0817 1.15766,-5.78262 2.57258,-12.66872 1.414918,-6.88609 2.572581,-12.61893 2.572581,-12.73964 0,-0.16231 -0.277193,-0.19049 -1.064517,-0.1082 -0.585483,0.0612 -1.064516,0.0597 -1.064516,-0.003 0,-0.063 0.451284,-1.61867 1.00285,-3.45696 l 1.00285,-3.34233 0.90441,-0.0101 c 0.497421,-0.006 3.898357,-0.19424 7.55763,-0.41932 3.659275,-0.225085 6.703025,-0.360269 6.763895,-0.300407 0.28493,0.280197 10.74171,31.191737 10.59732,31.326967 -0.0346,0.0324 -1.6596,0.14932 -3.61122,0.25989 -1.95161,0.11057 -3.79069,0.23097 -4.08684,0.26755 l -0.53845,0.0665 -0.60645,-2.37781 -0.60645,-2.37782 -0.62929,0.005 c -1.38306,0.0114 -11.208186,0.66781 -11.295009,0.75463 -0.05113,0.0511 -0.329303,1.11438 -0.618173,2.36279 -0.288869,1.24842 -0.565822,2.31045 -0.61545,2.36008 -0.08403,0.084 -6.089843,0.51024 -7.57243,0.53739 -0.365927,0.007 -0.665321,-0.0547 -0.665321,-0.13635 z m 17.676543,-12.24676 c 0.13582,-0.0763 -0.35353,-1.67316 -1.51315,-4.93775 -0.94264,-2.65373 -1.76759,-4.87868 -1.83323,-4.94432 -0.0656,-0.0656 -0.16478,0.0697 -0.22031,0.30078 -0.25843,1.07539 -2.222752,9.79615 -2.222752,9.86806 0,0.12031 5.554552,-0.15482 5.789442,-0.28677 z"
       id="path10484"
       inkscape:label="bg" />
    <text
       xml:space="preserve"
       style="font-style:normal;font-variant:normal;font-weight:normal;font-stretch:normal;font-size:50.8px;font-family:Nougat;-inkscape-font-specification:Nougat;display:inline;fill:#000000;fill-opacity:1;stroke:#000000;stroke-width:2.5;stroke-dasharray:none;stroke-opacity:1"
       x="100.1511"
       y="126.93602"
       id="text1066-7"
       transform="rotate(-7.1500862)"
       inkscape:label="bf"><tspan
         sodipodi:role="line"
         id="tspan1064-1"
         style="font-style:normal;font-variant:normal;font-weight:normal;font-stretch:normal;font-family:Nougat;-inkscape-font-specification:Nougat;fill:#000000;fill-opacity:1;stroke:#000000;stroke-width:2.5;stroke-dasharray:none;stroke-opacity:1"
         x="100.1511"
         y="126.93602">W</tspan></text>
    <path
       id="text1058-7"
       style="font-style:normal;font-variant:normal;font-weight:normal;font-stretch:normal;font-size:50.8px;font-family:Nougat;-inkscape-font-specification:Nougat;display:inline;fill:#000000;fill-opacity:1;stroke:#000000;stroke-width:2.5;stroke-dasharray:none;stroke-opacity:1"
       d="m 62.334419,72.509438 -3.87368,9.744547 2.36164,0.35361 -3.63342,24.265975 10.75131,1.60984 1.51954,-10.148265 3.10256,10.840355 12.860996,1.92572 -4.315986,-11.998125 c 4.117346,-1.88332 6.534606,-5.21993 7.251756,-10.00946 0.54665,-3.65077 -0.17915,-6.80712 -2.17764,-9.46921 -1.965,-2.65708 -4.772826,-4.258937 -8.423586,-4.805577 z m 9.25428,11.607827 2.56198,0.38361 c 2.445,0.3661 3.52203,1.52012 3.23115,3.46273 -0.27583,1.84213 -1.63617,2.58031 -4.08118,2.21421 l -2.56198,-0.38362 z m 1.08302,1.43189 -0.23814,1.59045 -0.23822,1.59095 0.76792,0.11296 c 2.3385,0.3451 3.16025,-0.0348 3.15994,-1.4602 -2e-4,-0.89634 0.25564,-0.0827 -1.49258,-0.41549 z"
       sodipodi:nodetypes="cccccccccscsccsssccccccscc"
       inkscape:label="be" />
    <path
       id="text296-6"
       style="font-style:normal;font-variant:normal;font-weight:normal;font-stretch:normal;font-size:50.8px;font-family:Nougat;-inkscape-font-specification:Nougat;display:inline;fill:#000000;fill-opacity:1;stroke:#000000;stroke-width:2.5;stroke-dasharray:none;stroke-opacity:1"
       d="m 26.405423,77.450095 -0.725329,10.41161 2.356482,-0.3833 3.947339,24.268205 17.298724,-2.81372 c 2.77447,-0.45128 4.94777,-1.64549 6.51985,-3.58246 1.72835,-2.03103 2.37221,-4.40027 1.9318,-7.107875 -0.35341,-2.17278 -1.04254,-3.87909 -2.06771,-5.11912 -0.93114,-1.08377 -2.45543,-2.12264 -4.57283,-3.11639 2.63088,-2.17782 3.66607,-4.9883 3.10605,-8.43132 -0.40235,-2.47362 -1.5669,-4.36018 -3.49381,-5.659407 -1.92691,-1.29923 -4.12731,-1.7475 -6.600936,-1.34515 z m 11.8299,7.54588 1.955063,-0.318 c 2.406769,-0.39147 3.718942,0.0813 3.936427,1.41834 0.217485,1.3371 -0.743231,2.17952 -2.88258,2.52749 l -2.356482,0.38329 z m 1.445506,1.07168 0.123616,0.75999 0.123616,0.75999 0.968683,-0.19892 c 1.508946,-0.31014 1.971595,-0.55394 1.935551,-1.02058 -0.02441,-0.31605 -0.172165,-0.42235 -0.700115,-0.50287 -0.340643,-0.052 -0.637691,-0.0376 -1.440105,0.0688 z m 0.32428,9.80895 1.704624,-0.27727 c 2.37334,-0.38603 3.679306,0.15621 3.918536,1.62701 0.26098,1.60451 -0.577567,2.5646 -2.516353,2.879945 l -2.356482,0.3833 z m 1.440445,1.04056 0.171238,1.05277 0.171154,1.05225 0.792125,-0.12885 c 0.813276,-0.13228 1.347623,-0.31514 1.603315,-0.54925 0.292979,-0.26821 0.263589,-1.08116 -0.04777,-1.3205 -0.336873,-0.25895 -1.318731,-0.32489 -2.364476,-0.15833 z"
       inkscape:label="bd" />
    <path
       style="color:#000000;font-size:50.8px;font-family:Nougat;-inkscape-font-specification:Nougat;fill:#000000;fill-opacity:1;stroke:none;stroke-width:2.5;-inkscape-stroke:none"
       d="m 89.4812,77.941383 -3.60456,12.082577 2.58919,-0.15375 -5.28897,25.75923 13.665378,-0.8115 1.133294,-4.90198 7.882598,-0.46809 1.24923,4.7605 14.18595,-0.84241 -0.54473,-1.56225 -12.20915,-34.994057 z m 1.89512,2.391867 15.42401,-0.915917 11.04202,31.649157 -8.83795,0.52482 -1.24923,-4.7605 -11.793692,0.70034 -1.133278,4.90199 -8.5455,0.50745 5.28897,-25.75922 -2.27724,0.13523 z m 9.37309,10.17099 -2.316842,10.22394 5.784042,-0.34348 -0.51031,-1.54277 z m 0.54532,5.6462 -0.028,-0.10578 0.0647,-0.004 z"
       id="path2617-3"
       sodipodi:nodetypes="cccccccccccccccccccccccccccccccc"
       inkscape:label="bc" />
    <text
       xml:space="preserve"
       style="font-style:normal;font-variant:normal;font-weight:normal;font-stretch:normal;font-size:50.8px;font-family:Nougat;-inkscape-font-specification:Nougat;fill:#000000;fill-opacity:1;stroke:#000000;stroke-width:2.5;stroke-dasharray:none;stroke-opacity:1"
       x="165.71851"
       y="84.383163"
       id="text2596-1"
       transform="rotate(8.9693051)"
       inkscape:label="ba"><tspan
         sodipodi:role="line"
         id="tspan2594-6"
         style="fill:#000000;fill-opacity:1;stroke-width:2.5"
         x="165.71851"
         y="84.383163">L</tspan></text>
    <text
       xml:space="preserve"
       style="font-style:normal;font-variant:normal;font-weight:normal;font-stretch:normal;font-size:50.8px;font-family:Nougat;-inkscape-font-specification:Nougat;display:inline;fill:#ffffff;fill-opacity:1;stroke:#000000;stroke-width:2.5;stroke-dasharray:none;stroke-opacity:1"
       x="100.43264"
       y="118.53499"
       id="text1066"
       transform="rotate(-7.1500862)"><tspan
         sodipodi:role="line"
         id="tspan1064"
         style="font-style:normal;font-variant:normal;font-weight:normal;font-stretch:normal;font-family:Nougat;-inkscape-font-specification:Nougat;fill:#ffffff;fill-opacity:1;stroke:#000000;stroke-width:2.5;stroke-dasharray:none;stroke-opacity:1"
         x="100.43264"
         y="118.53499">W</tspan></text>
    <path
       id="text1058"
       style="font-style:normal;font-variant:normal;font-weight:normal;font-stretch:normal;font-size:50.8px;font-family:Nougat;-inkscape-font-specification:Nougat;display:inline;fill:#ffffff;fill-opacity:1;stroke:#000000;stroke-width:2.5;stroke-dasharray:none;stroke-opacity:1"
       d="m 61.568102,64.138697 -3.873673,9.74455 2.36164,0.353616 -3.633428,24.265976 10.751319,1.609831 1.519533,-10.148259 3.102559,10.840349 12.861001,1.92572 -4.315985,-11.998119 c 4.117343,-1.883316 6.534608,-5.219927 7.251762,-10.009464 0.546641,-3.650762 -0.179159,-6.807118 -2.177643,-9.469209 -1.965002,-2.657077 -4.77283,-4.258938 -8.423592,-4.805579 z m 9.254283,11.607834 2.561979,0.383614 c 2.445003,0.366099 3.522027,1.520121 3.231154,3.462725 -0.275829,1.842133 -1.636177,2.580308 -4.08118,2.214209 l -2.56198,-0.383614 z m 1.083022,1.431893 -0.238144,1.590451 -0.238217,1.590944 0.767918,0.112962 c 2.338499,0.345097 3.160251,-0.03484 3.159938,-1.460196 -2.01e-4,-0.896342 0.255645,-0.0827 -1.492578,-0.415496 z"
       sodipodi:nodetypes="cccccccccscsccsssccccccscc" />
    <path
       id="text296"
       style="font-style:normal;font-variant:normal;font-weight:normal;font-stretch:normal;font-size:50.8px;font-family:Nougat;-inkscape-font-specification:Nougat;display:inline;fill:#ffffff;fill-opacity:1;stroke:#000000;stroke-width:2.5;stroke-dasharray:none;stroke-opacity:1"
       d="m 25.639109,69.07936 -0.725329,10.411606 2.356482,-0.383293 3.947339,24.268197 17.298723,-2.81372 c 2.77447,-0.45128 4.947768,-1.645481 6.519854,-3.582454 1.728346,-2.031028 2.372206,-4.400266 1.931799,-7.10788 -0.353411,-2.172772 -1.042539,-3.879089 -2.067717,-5.11912 -0.931137,-1.083766 -2.455422,-2.122631 -4.572827,-3.116382 2.630884,-2.177823 3.666075,-4.988308 3.106052,-8.431323 -0.402348,-2.473623 -1.566895,-4.360181 -3.493807,-5.659409 -1.92691,-1.299228 -4.127315,-1.7475 -6.600939,-1.345153 z m 11.8299,7.545884 1.955063,-0.318001 c 2.406769,-0.391472 3.718942,0.08125 3.936427,1.418342 0.217485,1.337093 -0.743231,2.179511 -2.88258,2.527487 l -2.356482,0.383293 z m 1.445506,1.071676 0.123616,0.759992 0.123616,0.759991 0.968683,-0.198919 c 1.508946,-0.310145 1.971595,-0.553946 1.935551,-1.020578 -0.02441,-0.316057 -0.172165,-0.422353 -0.700115,-0.502872 -0.340643,-0.05196 -0.637691,-0.0376 -1.440105,0.0688 z m 0.32428,9.808948 1.704624,-0.277265 c 2.37334,-0.386036 3.679302,0.156206 3.918534,1.627006 0.260983,1.604513 -0.577565,2.564602 -2.516351,2.879955 l -2.356482,0.383293 z m 1.440445,1.040562 0.171238,1.052767 0.171154,1.052251 0.792125,-0.128843 c 0.813276,-0.132283 1.347623,-0.315142 1.603315,-0.549258 0.292979,-0.268206 0.263589,-1.081152 -0.04777,-1.320494 -0.336873,-0.258957 -1.318731,-0.324891 -2.364476,-0.158333 z" />
    <text
       xml:space="preserve"
       style="font-style:normal;font-variant:normal;font-weight:normal;font-stretch:normal;font-size:50.8px;font-family:Nougat;-inkscape-font-specification:Nougat;fill:#ffffff;fill-opacity:1;stroke:#000000;stroke-width:2.5;stroke-dasharray:none;stroke-opacity:1"
       x="163.65651"
       y="76.234253"
       id="text2596"
       transform="rotate(8.9693051)"><tspan
         sodipodi:role="line"
         id="tspan2594"
         style="stroke-width:2.5"
         x="163.65651"
         y="76.234253">L</tspan></text>
    <text
       xml:space="preserve"
       style="font-style:normal;font-variant:normal;font-weight:normal;font-stretch:normal;font-size:70.5556px;font-family:Nougat;-inkscape-font-specification:Nougat;fill:#f40a0a;fill-opacity:1;stroke:#000000;stroke-width:3.49999;stroke-dasharray:none;stroke-opacity:1"
       x="25.135595"
       y="163.36565"
       id="text4861"
       transform="rotate(-5.11259)"><tspan
         sodipodi:role="line"
         id="tspan4859"
         style="stroke-width:3.5"
         x="25.135595"
         y="163.36565">H</tspan></text>
    <text
       xml:space="preserve"
       style="font-style:normal;font-variant:normal;font-weight:normal;font-stretch:normal;font-size:70.5556px;font-family:Nougat;-inkscape-font-specification:Nougat;fill:#f40a0a;fill-opacity:1;stroke:#000000;stroke-width:3.49999;stroke-dasharray:none;stroke-opacity:1"
       x="81.765312"
       y="157.60658"
       id="text4915"><tspan
         sodipodi:role="line"
         id="tspan4913"
         style="stroke-width:3.5"
         x="81.765312"
         y="157.60658">U</tspan></text>
    <path
       id="text4919"
       style="font-style:normal;font-variant:normal;font-weight:normal;font-stretch:normal;font-size:70.5556px;font-family:Nougat;-inkscape-font-specification:Nougat;fill:#f40a0a;fill-opacity:1;stroke:#000000;stroke-width:3.49999;stroke-dasharray:none;stroke-opacity:1"
       d="m 130.01306,108.05982 -4.45576,13.79387 3.30502,0.27042 -2.78473,34.03508 24.2606,1.985 c 3.89106,0.31836 7.21947,-0.5655 9.98585,-2.65167 3.00844,-2.16075 4.66799,-5.13958 4.97869,-8.93689 0.24932,-3.04722 -0.10952,-5.57812 -1.07738,-7.59228 -0.89328,-1.77207 -2.60167,-3.68164 -5.12426,-5.7286 4.27422,-2.0572 6.60918,-5.50004 7.00426,-10.32872 0.28384,-3.46915 -0.65626,-6.40155 -2.82,-8.79672 -2.16373,-2.39516 -4.98011,-3.73463 -8.44926,-4.01847 z m 13.42745,14.12417 2.74209,0.22435 c 3.37539,0.27617 4.98665,1.35224 4.83322,3.22746 -0.15343,1.87521 -1.73024,2.68991 -4.73058,2.44442 l -3.30503,-0.27041 z m 1.68513,1.87534 -0.0843,1.03059 -0.0844,1.03113 1.66072,0.0887 c 1.94474,0.10393 2.48888,-0.0331 2.53846,-0.639 0.016,-0.19613 -0.0471,-0.43105 -0.14031,-0.52219 -0.31333,-0.3065 -1.28629,-0.6062 -2.59244,-0.79853 z m -2.93367,13.38436 2.39083,0.19562 c 3.32851,0.27234 4.90842,1.44015 4.73965,3.50289 -0.18412,2.25025 -1.63572,3.26383 -4.35478,3.04136 l -3.30503,-0.27042 z m 1.68521,1.87431 -0.11896,1.45396 -0.11901,1.45449 1.15688,0.0936 c 1.88199,0.15298 2.45006,-0.0665 2.65995,-1.02777 0.21884,-1.00224 -0.4188,-1.45262 -2.55418,-1.80491 z" />
    <g
       id="g11073"
       transform="translate(-5.8800563,-47.6271)">
      <g
         aria-label="A"
         id="text11049"
         style="font-size:50.8px;font-family:Nougat;-inkscape-font-specification:Nougat;fill:#ffffff;stroke:#000000;stroke-width:2.5">
        <g
           id="path11060">
          <path
             style="color:#000000;-inkscape-font-specification:Nougat;stroke:none"
             d="m 123.30295,156.30644 -9.8552,-34.7472 h -17.272 l -3.4036,9.3472 h 2.4384 l -6.8072,25.4 h 11.1252 l 1.4224,-4.826 h 9.8552 l 0.9652,4.826 z m -14.6812,-13.97 h -5.4356 l 2.6924,-10.3124 z"
             id="path11065" />
          <path
             style="color:#000000;-inkscape-font-specification:Nougat;fill:#000000;stroke:none"
             d="m 95.300781,120.30859 -4.314453,11.84766 h 2.595703 l -6.808594,25.40039 h 13.689453 l 1.42188,-4.82617 h 7.89648 l 0.96484,4.82617 h 14.21094 l -0.45117,-1.5918 -10.11328,-35.65625 z m 1.75,2.5 h 15.453129 l 9.14453,32.24805 h -8.85156 l -0.9668,-4.82617 h -11.81445 l -1.42188,4.82617 h -8.560547 l 6.806641,-25.40039 h -2.28125 z m 8.816409,10.77145 -3.42065,10.0059 h 6.73515 l -0.41797,-1.57032 z m -0.0393,8.24237 1.16819,-0.73647 h -2.1914 z"
             id="path11067"
             sodipodi:nodetypes="cccccccccccccccccccccccccccccccc" />
        </g>
      </g>
    </g>
  </g>
</svg>
